<svg width="45" height="45" viewBox="0 0 45 45" fill="none" xmlns="http://www.w3.org/2000/svg">
<mask id="mask0_556_550" style="mask-type:alpha" maskUnits="userSpaceOnUse" x="0" y="0" width="45" height="45">
<rect width="45" height="45" fill="#242424"/>
</mask>
<g mask="url(#mask0_556_550)">
<path d="M22.5 39.375L19.7813 36.9375C16.625 34.0938 14.0156 31.6406 11.9531 29.5781C9.89062 27.5156 8.25 25.6641 7.03125 24.0234C5.8125 22.3828 4.96094 20.875 4.47656 19.5C3.99219 18.125 3.75 16.7187 3.75 15.2812C3.75 12.3437 4.73437 9.89063 6.70313 7.92188C8.67188 5.95312 11.125 4.96875 14.0625 4.96875C15.6875 4.96875 17.2344 5.3125 18.7031 6C20.1719 6.6875 21.4375 7.65625 22.5 8.90625C23.5625 7.65625 24.8281 6.6875 26.2969 6C27.7656 5.3125 29.3125 4.96875 30.9375 4.96875C33.875 4.96875 36.3281 5.95312 38.2969 7.92188C40.2656 9.89063 41.25 12.3437 41.25 15.2812C41.25 16.7187 41.0078 18.125 40.5234 19.5C40.0391 20.875 39.1875 22.3828 37.9688 24.0234C36.75 25.6641 35.1094 27.5156 33.0469 29.5781C30.9844 31.6406 28.375 34.0938 25.2187 36.9375L22.5 39.375Z" fill="#242424"/>
</g>
</svg>
