<svg width="45" height="45" viewBox="0 0 45 45" fill="none" xmlns="http://www.w3.org/2000/svg">
<rect x="6.16406" y="9.5" width="14.3332" height="13.6666" stroke="#242424"/>
<rect x="18.332" y="7.66675" width="3.99997" height="3.99997" fill="#242424"/>
<rect x="31.6641" y="7" width="4.66663" height="3.99997" fill="#242424"/>
<rect x="18.332" y="21" width="3.99997" height="3.99997" fill="#242424"/>
<rect x="4.33203" y="21" width="3.99997" height="3.99997" fill="#242424"/>
<rect x="4.33203" y="7.66675" width="3.99997" height="3.99997" fill="#242424"/>
<path d="M11.6448 19.6665H10.5198L12.5681 13.8483H13.8692L15.9204 19.6665H14.7954L13.2414 15.0415H13.1959L11.6448 19.6665ZM11.6817 17.3853H14.7499V18.2318H11.6817V17.3853Z" fill="#242424"/>
<rect x="29.5" y="10.8333" width="8.99993" height="4.3333" stroke="#242424"/>
<path d="M32.334 15V24.3978L34.0006 26.3333L35.6673 24.3978V15" stroke="#242424"/>
<rect x="3.5" y="29.4998" width="7.6666" height="7.6666" stroke="#242424"/>
<rect x="10.832" y="29.4998" width="7.6666" height="7.6666" stroke="#242424"/>
<rect x="18.166" y="29.4998" width="7.6666" height="7.6666" stroke="#242424"/>
<rect x="25.498" y="29.4998" width="7.6666" height="7.6666" stroke="#242424"/>
<rect x="32.834" y="29.4998" width="7.6666" height="7.6666" stroke="#242424"/>
</svg>
