<svg width="66" height="66" viewBox="0 0 66 66" fill="none" xmlns="http://www.w3.org/2000/svg">
<mask id="mask0_735_18" style="mask-type:alpha" maskUnits="userSpaceOnUse" x="7" y="9" width="52" height="52">
<rect x="7" y="9" width="52" height="52" fill="#242424"/>
</mask>
<g mask="url(#mask0_735_18)">
<path d="M33.0006 56.6667C30.0395 56.6667 27.2409 56.0979 24.6048 54.9604C21.9687 53.8229 19.6666 52.2701 17.6986 50.3021C15.7305 48.334 14.1777 46.0319 13.0402 43.3958C11.9027 40.7597 11.334 37.9611 11.334 35C11.334 32.0028 11.9208 29.1861 13.0944 26.55C14.268 23.9139 15.8569 21.6208 17.8611 19.6708C19.8652 17.7208 22.2034 16.1771 24.8757 15.0396C27.5479 13.9021 30.4006 13.3333 33.434 13.3333C36.3229 13.3333 39.0493 13.8299 41.6131 14.8229C44.177 15.816 46.425 17.1882 48.3569 18.9396C50.2888 20.691 51.8236 22.7674 52.9611 25.1687C54.0986 27.5701 54.6673 30.1611 54.6673 32.9417C54.6673 37.0944 53.4034 40.2812 50.8756 42.5021C48.3479 44.7229 45.2784 45.8333 41.6673 45.8333H37.659C37.334 45.8333 37.1083 45.9236 36.9819 46.1042C36.8555 46.2847 36.7923 46.4833 36.7923 46.7C36.7923 47.1333 37.0631 47.7562 37.6048 48.5687C38.1465 49.3812 38.4173 50.3111 38.4173 51.3583C38.4173 53.1639 37.9208 54.5 36.9277 55.3667C35.9347 56.2333 34.6256 56.6667 33.0006 56.6667ZM21.084 37.1667C22.0229 37.1667 22.7993 36.8597 23.4132 36.2458C24.027 35.6319 24.334 34.8555 24.334 33.9167C24.334 32.9778 24.027 32.2014 23.4132 31.5875C22.7993 30.9736 22.0229 30.6667 21.084 30.6667C20.1451 30.6667 19.3687 30.9736 18.7548 31.5875C18.1409 32.2014 17.834 32.9778 17.834 33.9167C17.834 34.8555 18.1409 35.6319 18.7548 36.2458C19.3687 36.8597 20.1451 37.1667 21.084 37.1667ZM27.584 28.5C28.5229 28.5 29.2993 28.193 29.9131 27.5792C30.527 26.9653 30.834 26.1889 30.834 25.25C30.834 24.3111 30.527 23.5347 29.9131 22.9208C29.2993 22.3069 28.5229 22 27.584 22C26.6451 22 25.8687 22.3069 25.2548 22.9208C24.6409 23.5347 24.334 24.3111 24.334 25.25C24.334 26.1889 24.6409 26.9653 25.2548 27.5792C25.8687 28.193 26.6451 28.5 27.584 28.5ZM38.4173 28.5C39.3562 28.5 40.1326 28.193 40.7465 27.5792C41.3604 26.9653 41.6673 26.1889 41.6673 25.25C41.6673 24.3111 41.3604 23.5347 40.7465 22.9208C40.1326 22.3069 39.3562 22 38.4173 22C37.4784 22 36.702 22.3069 36.0881 22.9208C35.4743 23.5347 35.1673 24.3111 35.1673 25.25C35.1673 26.1889 35.4743 26.9653 36.0881 27.5792C36.702 28.193 37.4784 28.5 38.4173 28.5ZM44.9173 37.1667C45.8562 37.1667 46.6326 36.8597 47.2465 36.2458C47.8604 35.6319 48.1673 34.8555 48.1673 33.9167C48.1673 32.9778 47.8604 32.2014 47.2465 31.5875C46.6326 30.9736 45.8562 30.6667 44.9173 30.6667C43.9784 30.6667 43.202 30.9736 42.5881 31.5875C41.9743 32.2014 41.6673 32.9778 41.6673 33.9167C41.6673 34.8555 41.9743 35.6319 42.5881 36.2458C43.202 36.8597 43.9784 37.1667 44.9173 37.1667Z" fill="#242424"/>
</g>
</svg>
