<svg width="66" height="66" viewBox="0 0 66 66" fill="none" xmlns="http://www.w3.org/2000/svg">
<path d="M35.4456 48.404L24.4356 49.8687L22.5467 48.2222V43.1212L17.668 41.2323V50.6262L23.8194 56H46.2133L48.2335 53.6869L35.4456 48.404Z" fill="#242424"/>
<path d="M55.0921 55.7071L36.7892 47.7171L34.9609 35.9292L39.3549 39.7676L40.1528 44.8484L55.0921 55.7071Z" fill="#242424"/>
<path d="M46.3533 18.5152H32.6463L23.4746 13L6 20.5051L10.2828 36.0203L35.3029 47.0708L33.3332 34.5859L28.5756 30.3839L33.0706 23.9293L31.2019 30.5859L40.6766 38.8789L41.4038 44.4142L50.4543 51.1415L55.0805 45.7981V26.1111C53.3634 24.5455 48.5149 20.5455 46.3533 18.5152ZM46.9695 32.7677L42.2119 28.6263H46.9695V32.7677Z" fill="#242424"/>
</svg>
