<svg width="66" height="66" viewBox="0 0 66 66" fill="none" xmlns="http://www.w3.org/2000/svg">
<path d="M33.0006 56.4998L29.859 53.6831C26.2118 50.397 23.1965 47.5623 20.8132 45.179C18.4298 42.7956 16.534 40.656 15.1257 38.7602C13.7173 36.8644 12.7333 35.122 12.1736 33.5331C11.6138 31.9442 11.334 30.3192 11.334 28.6581C11.334 25.2637 12.4715 22.429 14.7465 20.154C17.0215 17.879 19.8562 16.7415 23.2507 16.7415C25.1284 16.7415 26.9159 17.1387 28.6131 17.9331C30.3104 18.7276 31.7729 19.847 33.0006 21.2915C34.2284 19.847 35.6909 18.7276 37.3882 17.9331C39.0854 17.1387 40.8729 16.7415 42.7506 16.7415C46.1451 16.7415 48.9798 17.879 51.2548 20.154C53.5298 22.429 54.6673 25.2637 54.6673 28.6581C54.6673 30.3192 54.3875 31.9442 53.8277 33.5331C53.268 35.122 52.284 36.8644 50.8756 38.7602C49.4673 40.656 47.5715 42.7956 45.1881 45.179C42.8048 47.5623 39.7895 50.397 36.1423 53.6831L33.0006 56.4998Z" fill="#242424"/>
</svg>
