<svg width="66" height="66" viewBox="0 0 66 66" fill="none" xmlns="http://www.w3.org/2000/svg">
<path d="M32.3836 57.2309C31.0913 57.2309 29.7893 57.084 28.4775 56.7903C27.1657 56.4966 25.8245 56.0757 24.4539 55.5275C24.9238 50.7892 26.2944 46.3643 28.5656 42.2526C30.8368 38.141 33.7541 34.5188 37.3176 31.3861C33.0101 33.579 29.2803 36.4767 26.128 40.0793C22.9757 43.6819 20.773 47.7936 19.5199 52.4143C19.3633 52.2969 19.2165 52.1696 19.0794 52.0325L18.6389 51.592C16.7984 49.7515 15.3985 47.6957 14.4391 45.4245C13.4797 43.1533 13 40.7842 13 38.3172C13 35.6544 13.5286 33.1091 14.5859 30.6812C15.6432 28.2534 17.1117 26.0997 18.9913 24.22C22.1631 21.0482 26.2748 18.9826 31.3263 18.0232C36.3778 17.0638 43.4655 16.9757 52.5895 17.7588C53.2944 27.1178 53.1769 34.2545 52.2371 39.1689C51.2973 44.0833 49.261 48.1069 46.1283 51.2396C44.2095 53.1584 42.0656 54.6366 39.6965 55.6743C37.3274 56.712 34.8897 57.2309 32.3836 57.2309Z" fill="#242424"/>
</svg>
