<svg width="66" height="66" viewBox="0 0 66 66" fill="none" xmlns="http://www.w3.org/2000/svg">
<path d="M57 12.4286V53.5714C57 55.465 55.465 57 53.5714 57H12.4286C10.535 57 9 55.465 9 53.5714V12.4286C9 10.535 10.535 9 12.4286 9H53.5714C55.465 9 57 10.535 57 12.4286ZM22.7143 26.1429H15.8571V50.1429H22.7143V26.1429ZM23.5714 19.2857C23.5714 16.9188 21.6526 15 19.2857 15C16.9188 15 15 16.9188 15 19.2857C15 21.6526 16.9188 23.5714 19.2857 23.5714C21.6526 23.5714 23.5714 21.6526 23.5714 19.2857ZM50.1429 37.4229C50.1429 29.88 47.64 25.4571 40.3371 25.4571C37.2408 25.4575 34.3481 27.0003 32.6229 29.5714V26.1429H26.1429V50.1429H33V38.9314C32.818 37.2865 33.3274 35.6398 34.4066 34.3851C35.4858 33.1304 37.0378 32.3803 38.6914 32.3143C42.6686 32.3143 43.2857 36.2229 43.2857 38.9314V50.1429H50.1429V37.4229Z" fill="#242424"/>
</svg>
