<svg width="130" height="132" viewBox="0 0 130 132" fill="none" xmlns="http://www.w3.org/2000/svg">
<path d="M9.75635 97.87C9.90635 97.37 10.0663 96.87 10.2563 96.38C10.8763 94.73 11.6963 93.17 12.6863 91.73C13.4263 90.66 14.2564 89.66 15.1764 88.74C11.7164 88.01 8.76639 86.95 6.54639 86C6.78639 87.86 7.22636 90.37 8.01636 93.07C8.50636 94.77 9.09635 96.37 9.75635 97.87Z" fill="#FFD93C"/>
<path d="M24.596 83.4297L25.046 83.9398C25.546 83.8598 26.0559 83.7598 26.5759 83.6298V75.9697C26.4259 75.9797 26.276 75.9997 26.116 76.0197C24.166 76.3097 23.8359 77.1798 23.7059 77.4998C23.1559 78.9098 23.1459 80.3398 23.6859 81.7598C24.0659 82.7798 24.596 83.4297 24.596 83.4297Z" fill="#FFD93C"/>
<path d="M30.646 118.21C26.046 118.21 21.756 117.09 17.836 114.88C13.856 112.62 10.476 109.43 7.80601 105.39C7.79601 105.38 7.79599 105.37 7.78599 105.36C7.52599 105.64 7.25595 105.94 6.99595 106.27C5.52595 108.14 5.036 109.87 5.546 111.41C7.636 117.7 13.446 121.71 22.816 123.32C26.686 123.99 30.386 124.08 32.816 124.04C33.296 124.03 33.746 124.02 34.166 124L32.646 118.13C31.966 118.19 31.306 118.21 30.646 118.21Z" fill="#FFD93C"/>
<path d="M102.456 20.4198L107.676 10.8498C107.216 10.7598 106.726 10.6798 106.206 10.6398C104.646 10.5098 103.256 10.6798 102.066 11.1598C102.016 13.3898 101.986 15.5998 102.046 16.9098C102.096 18.0798 102.206 19.2698 102.456 20.4198Z" fill="white"/>
<path d="M37.0566 59.3705L52.0366 52.2804L60.2366 36.5905V34.5504C58.9766 35.0604 57.5965 35.4204 56.0865 35.6104C55.1565 35.7304 54.1766 35.7904 53.1566 35.7904C51.8466 35.7904 50.4665 35.6904 49.0266 35.4904C46.4665 35.1404 44.2365 34.5404 42.8265 34.1104C41.1965 36.5804 39.1765 38.1604 36.8265 38.8004C34.5365 39.4304 32.4065 39.0204 31.2565 38.8004C30.2865 38.6104 27.5665 38.0004 27.4465 37.9704L24.8466 37.3804L26.0266 32.1704L28.6265 32.7604C29.3865 32.9304 31.5265 33.4104 32.2565 33.5504C34.2265 33.9304 36.2665 34.3204 38.3365 31.2104C38.4665 30.2505 38.7766 28.3105 39.4766 25.6205C40.0466 23.3905 40.7666 21.0904 41.6166 18.7604C42.5966 16.0704 43.7566 13.3405 45.0566 10.6505C44.7566 10.2105 43.9966 9.27045 42.1166 7.74045C41.5166 7.25045 40.9365 6.81043 40.4365 6.44043L15.7366 22.3705L5.93652 19.2604C5.96652 19.5004 6.00653 19.7405 6.06653 20.0005C6.68653 22.7705 8.58657 25.3504 11.7366 27.6604L13.5765 29.0104L12.5466 31.0104C12.4966 31.1104 11.8465 32.5004 11.3765 34.6704C12.6565 34.1204 13.8965 33.4905 15.0865 32.7805C16.1265 34.2605 17.2566 35.6604 18.4766 36.9804C18.1966 37.1604 17.9066 37.3305 17.6166 37.5005C15.6066 38.6805 13.4766 39.6705 11.2766 40.4405C11.1866 40.4705 11.0865 40.5104 10.9965 40.5404C11.0765 41.4204 11.2066 42.2805 11.4066 43.1305C14.8066 42.4305 18.0166 41.1604 20.9266 39.4305C22.3166 40.7104 23.7866 41.8904 25.3466 42.9704C24.7366 43.3804 24.1066 43.7804 23.4666 44.1504C21.4566 45.3304 19.3265 46.3204 17.1265 47.0904C15.9065 47.5204 14.6666 47.8804 13.4166 48.1704C13.8166 48.8604 14.2565 49.5304 14.7465 50.1805C19.7865 49.5704 24.4765 47.7304 28.4965 44.9604C30.2465 45.9504 32.0665 46.8204 33.9465 47.5504C32.4865 48.7504 30.9266 49.8304 29.3066 50.7904C27.2966 51.9704 25.1666 52.9604 22.9666 53.7304C21.7766 54.1504 20.5766 54.5004 19.3666 54.7804C20.1166 55.3104 20.8965 55.7905 21.6965 56.2005C27.5465 55.1905 32.8765 52.5005 37.1365 48.6405C39.1565 49.2405 41.2366 49.6804 43.3566 49.9704C42.4066 51.0304 41.3865 52.0404 40.3165 52.9804C38.5765 54.5104 36.6865 55.8804 34.6965 57.0404C33.4565 57.7704 32.1766 58.4205 30.8566 59.0005C33.5466 59.3905 35.7966 59.4105 37.0566 59.3705ZM20.3365 25.3504L23.5165 21.6805L27.1865 24.8604L24.0065 28.5305L20.3365 25.3504Z" fill="white"/>
<path d="M90.0964 60.0101L93.5764 58.4301C96.7764 56.5901 99.0164 55.0101 100.446 53.5701H93.5964V48.2301H104.996C112.726 47.6901 116.286 45.4501 117.716 44.1601C118.206 43.7201 118.656 42.8101 118.986 41.6101C119.316 40.4001 119.526 38.9101 119.606 37.1801C119.656 36.0401 119.656 34.9501 119.616 34.0201C119.016 34.0601 118.336 34.0901 117.586 34.0901C114.646 34.0901 110.666 33.6601 106.156 32.0401C104.216 31.3401 102.536 30.3101 101.166 28.9701C99.9864 27.8101 99.0165 26.4201 98.3065 24.8301C97.0565 22.0401 96.7964 19.1201 96.7064 17.1601C96.5964 14.8701 96.7264 10.2701 96.8364 7.12012C95.7364 7.42012 94.4465 7.90012 93.1765 8.65012C89.1165 11.0501 87.0564 15.1601 87.0464 20.8701V23.5401H81.7064V20.8701C81.7064 19.7701 81.7664 18.7101 81.8964 17.6901L81.7964 17.8501C81.7764 17.8401 79.3664 16.4101 75.8464 15.2001C73.2064 14.3001 69.4464 13.3601 65.5664 13.5501V36.6101L73.7664 52.3001L90.0964 60.0101ZM91.6864 28.1801H96.7664V33.2601H91.6864V28.1801ZM72.2064 35.6201L72.8964 33.0401L78.0565 34.4201L77.3665 37.0001C76.7465 39.3101 77.3565 41.7401 78.9865 43.4901L80.8065 45.4501L76.8964 49.0901L75.0764 47.1301C73.6864 45.6401 72.6865 43.8101 72.1765 41.8401C71.6465 39.8101 71.6564 37.6501 72.2064 35.6201Z" fill="white"/>
<path d="M39.1165 67.1797C39.2065 67.3997 39.2965 67.6297 39.3765 67.8497C40.0665 69.6897 40.4965 71.4697 40.6765 73.1397C41.0065 76.3797 40.3765 79.2897 38.8065 81.7797C36.9365 84.7497 33.7365 87.0197 29.5765 88.3497C27.5165 89.0097 25.2465 89.4097 23.0765 89.5297C19.5065 91.3497 16.6865 94.4597 15.2565 98.2697C14.4265 100.48 14.0865 102.78 14.2565 105.12C16.0565 107.2 18.1265 108.91 20.4665 110.24C27.8265 114.41 36.7865 113.67 47.0965 108.03C53.3865 104.59 58.2565 100.31 60.0765 98.6197V88.6897L52.0465 73.3097L39.1165 67.1797ZM31.4465 104.64L26.3965 104.1L26.9365 99.0497L31.9865 99.5897L31.4465 104.64ZM44.6765 94.9397L44.5165 92.2697C44.3765 89.8797 43.0365 87.7697 40.9365 86.6197L38.5965 85.3397L41.1565 80.6497L43.4965 81.9297C45.2765 82.9097 46.8065 84.3297 47.9165 86.0297C49.0565 87.7897 49.7265 89.8397 49.8565 91.9497L50.0165 94.6197L44.6765 94.9397Z" fill="white"/>
<path d="M102.726 77.4305C101.566 78.6405 100.986 80.3805 100.696 81.6405C100.356 83.1405 100.346 84.3305 100.346 84.3405V84.3304H95.0062C95.0062 84.1604 95.0162 82.6105 95.4562 80.6005C95.7262 79.3905 96.0963 78.2505 96.5563 77.2205C97.1663 75.8705 97.9463 74.6905 98.8663 73.7305C99.3163 73.2605 99.7963 72.8305 100.286 72.4405C100.286 70.3105 100.366 67.8405 100.456 65.9805H89.2162L73.7662 73.2905L65.4062 89.2905V89.5505L67.4662 94.1305C69.7962 98.2005 71.7062 100.72 73.4362 101.99C73.8062 95.8705 74.6062 89.4205 75.7062 86.6305C76.2562 85.2305 77.3462 84.0205 78.9362 83.0405C80.0062 82.3805 81.3263 81.8105 82.8663 81.3405C85.3463 80.5805 87.6262 80.3205 87.7162 80.3105L88.3063 85.6205C88.2863 85.6205 86.3763 85.8405 84.3563 86.4705C83.2663 86.8105 82.3862 87.1905 81.7162 87.6105C80.9062 88.1105 80.7163 88.4905 80.6763 88.5905C79.8563 90.6805 78.8263 98.0105 78.5963 106.22C78.4763 110.37 78.5963 114.1 78.9263 117.01C79.4163 121.33 80.2163 122.47 80.3663 122.66C80.6463 123 81.7762 123.87 83.2762 124.65C84.4162 125.24 85.2462 125.521 85.7662 125.641C86.9062 122.891 89.6863 120.26 93.1063 117.03C99.2763 111.2 106.956 103.94 106.016 94.2805C106.006 94.1705 105.996 94.0405 105.976 93.9105C105.836 92.4805 105.586 90.0905 105.876 87.7005C106.056 86.2505 106.406 84.9705 106.936 83.9005C107.646 82.4505 108.676 81.3505 109.986 80.6405C110.976 80.1005 112.336 79.7505 114.156 79.5605C114.896 79.4805 115.726 79.4405 116.636 79.4205C113.316 76.8105 110.226 75.3905 107.686 75.3105C105.796 75.2305 104.166 75.9305 102.726 77.4305ZM97.6763 103.02H92.5963V97.9405H97.6763V103.02Z" fill="white"/>
<path d="M83.4762 62.8096L83.4562 62.7996L83.4762 62.7896L69.8662 56.3395L62.9062 43.0195L55.9362 56.3395L42.3262 62.7896L42.3562 62.7996L42.3262 62.8096L55.9362 69.2496L62.9062 82.5696L69.8662 69.2496L83.4762 62.8096Z" fill="#FFD93C"/>
<path d="M23.5479 21.6693L20.3706 25.334L24.0353 28.5112L27.2125 24.8465L23.5479 21.6693Z" fill="#471A0B"/>
<path d="M96.7665 28.1797H91.6865V33.2597H96.7665V28.1797Z" fill="#471A0B"/>
<path d="M75.0665 47.1301L76.8865 49.09L80.7965 45.4501L78.9765 43.4901C77.3465 41.7301 76.7365 39.3101 77.3565 37.0001L78.0465 34.42L72.8865 33.04L72.1965 35.6201C71.6465 37.6601 71.6365 39.81 72.1665 41.85C72.6765 43.81 73.6865 45.6401 75.0665 47.1301Z" fill="#471A0B"/>
<path d="M125.676 80.63C125.586 80.53 123.476 78.03 120.326 75.5C118.446 73.98 116.576 72.76 114.756 71.85C112.356 70.65 110.036 70.01 107.866 69.94C107.116 69.92 106.386 69.96 105.666 70.07C105.716 67.77 105.836 65.26 105.946 63.46L106.116 60.63H100.136C103.806 58.13 105.936 55.87 106.996 53.41C114.816 52.59 119.066 50.12 121.286 48.12C122.576 46.96 123.536 45.23 124.136 42.97C124.566 41.38 124.826 39.49 124.926 37.36C125.086 33.84 124.736 30.81 124.726 30.68L124.376 27.66L121.426 28.4C121.416 28.4 120.026 28.73 117.766 28.74C117.706 28.74 117.656 28.74 117.596 28.74C115.356 28.74 111.926 28.43 107.976 27C107.056 26.67 106.286 26.25 105.626 25.75L115.296 8.01999L112.706 6.81998C112.446 6.69998 110.036 5.62 106.846 5.31C105.216 5.15 103.676 5.22999 102.236 5.51999C102.276 4.60999 102.296 4.03998 102.296 4.00998L102.426 1.12997L99.5463 1.22998C99.4263 1.22998 98.3062 1.28 96.6962 1.62C94.5262 2.08 92.5062 2.83997 90.6862 3.87997C88.0762 5.36997 85.9863 7.38999 84.4863 9.85999C83.9863 10.68 83.5562 11.56 83.1862 12.48C81.9862 11.87 80.0762 10.97 77.7162 10.15C75.3462 9.32999 72.9862 8.74999 70.7162 8.42999C67.8162 8.01999 65.0362 8.03997 62.4562 8.46997L60.2263 8.84V28.38L59.9763 28.57C57.2463 30.66 52.9663 30.6 49.8463 30.18C47.4463 29.86 45.3463 29.27 44.1663 28.9C44.3063 28.26 44.4763 27.55 44.6763 26.76C45.5163 23.55 47.1362 18.44 50.1362 12.36C50.4462 11.73 50.7362 10.7 50.3262 9.35999C50.1262 8.69999 49.7862 8.04 49.2762 7.34C48.5962 6.4 47.6263 5.39 46.3063 4.25C44.2363 2.46 42.0462 1.01999 41.9562 0.959991L40.5062 0L14.9462 16.49L1.85626 12.34L0.996216 14.78C0.906216 15.04 0.126226 17.39 0.756226 20.68C1.11623 22.58 1.86627 24.42 2.98627 26.17C4.00627 27.76 5.33623 29.26 6.94623 30.64C6.37623 32.31 5.70626 34.9 5.60626 38C5.49626 41.19 5.99625 44.29 7.09625 47.22C8.45625 50.85 10.7362 54.18 13.8762 57.13C16.0562 59.19 18.7362 60.86 21.8362 62.1C24.2562 63.07 26.9462 63.78 29.8162 64.21C30.4862 64.31 31.1262 64.39 31.7462 64.45L31.8663 64.64C33.9163 68.02 35.0863 71.04 35.3563 73.63C35.5663 75.68 35.2163 77.39 34.2863 78.87C33.6663 79.86 32.8263 80.65 31.9163 81.3V71.15L29.7363 70.75C29.5263 70.71 27.6662 70.39 25.5062 70.68C24.1062 70.87 22.8662 71.28 21.8162 71.9C21.1362 72.3 20.5463 72.8 20.0463 73.36C19.4863 73.99 19.0463 74.72 18.7363 75.52C17.7063 78.15 17.6962 80.95 18.6962 83.6C18.7362 83.7 18.7762 83.81 18.8162 83.91C14.8962 83.35 11.5563 82.22 9.34625 81.32C6.65625 80.23 5.00624 79.22 4.95624 79.19L0.92627 76.66L0.876221 81.43C0.876221 81.67 0.836252 87.42 2.84625 94.36C3.47625 96.52 4.22626 98.56 5.10626 100.48C4.42626 101.09 3.64625 101.88 2.90625 102.8C1.76625 104.22 0.946257 105.69 0.476257 107.17C-0.153743 109.17 -0.163743 111.15 0.476257 113.06C2.01626 117.7 5.04627 121.44 9.48627 124.17C12.8863 126.26 17.1063 127.74 22.0363 128.58C25.6563 129.19 29.1063 129.37 31.8563 129.37C35.3363 129.37 37.7062 129.09 37.8762 129.07L40.9062 128.7L37.9562 117.3C41.7362 116.41 45.6563 114.86 49.6663 112.67C54.1963 110.19 58.0163 107.33 60.4163 105.36C63.0363 103.22 64.5862 101.66 64.6462 101.59L65.3962 100.83C68.0962 104.78 70.5163 106.9 73.2363 107.82C73.1863 111.51 73.3262 114.85 73.6262 117.57C73.8362 119.4 74.1263 120.99 74.4863 122.29C74.9463 123.93 75.5363 125.16 76.2863 126.06C77.3563 127.33 79.4262 128.65 81.0162 129.45C83.0662 130.49 84.8462 131.02 86.3262 131.02C86.7362 131.02 87.1263 130.98 87.4863 130.9C88.2263 130.74 88.8662 130.41 89.3962 129.94C89.9762 129.42 90.3863 128.74 90.6063 127.96C91.0563 126.3 93.9663 123.54 96.7863 120.87C100.126 117.71 103.916 114.13 106.846 109.77C108.506 107.31 109.676 104.91 110.446 102.43C111.326 99.58 111.626 96.65 111.346 93.72C111.336 93.6 111.326 93.47 111.306 93.33C111.176 92.04 110.976 90.1 111.196 88.3C111.326 87.19 111.676 85.76 112.566 85.28C112.686 85.21 113.876 84.63 118.466 84.71C121.046 84.75 123.346 84.99 123.366 84.99L129.956 85.67L125.676 80.63ZM102.066 11.16C103.266 10.68 104.646 10.5 106.206 10.64C106.726 10.68 107.226 10.76 107.676 10.85L102.456 20.42C102.206 19.27 102.096 18.08 102.046 16.91C101.986 15.6 102.006 13.39 102.066 11.16ZM65.5762 13.54C69.4662 13.35 73.2163 14.29 75.8563 15.19C79.3763 16.4 81.7863 17.83 81.8063 17.84L81.9062 17.68C81.7862 18.7 81.7162 19.76 81.7162 20.86V23.53H87.0563V20.86C87.0563 15.15 89.1262 11.04 93.1862 8.63998C94.4562 7.88998 95.7463 7.40999 96.8463 7.10999C96.7363 10.27 96.6062 14.86 96.7162 17.15C96.8062 19.11 97.0662 22.03 98.3162 24.82C99.0262 26.41 99.9963 27.81 101.176 28.96C102.546 30.29 104.226 31.33 106.166 32.03C110.676 33.66 114.656 34.08 117.596 34.08C118.346 34.08 119.016 34.05 119.626 34.01C119.656 34.94 119.666 36.03 119.616 37.17C119.536 38.9 119.326 40.39 118.996 41.6C118.666 42.8 118.226 43.7 117.726 44.15C116.296 45.44 112.746 47.68 105.006 48.22H93.6063V53.56H100.456C99.0262 55 96.7862 56.58 93.5862 58.42L90.1063 60L73.7762 52.27L65.5762 36.58V13.54ZM30.8762 59.01C32.1962 58.44 33.4762 57.78 34.7162 57.05C36.7062 55.88 38.5962 54.51 40.3362 52.99C41.4062 52.05 42.4262 51.04 43.3762 49.98C41.2462 49.7 39.1763 49.25 37.1562 48.65C32.8962 52.52 27.5662 55.2 21.7162 56.21C20.9162 55.79 20.1362 55.32 19.3862 54.79C20.5962 54.5 21.8063 54.15 22.9863 53.74C25.1863 52.97 27.3162 51.98 29.3262 50.8C30.9562 49.85 32.5062 48.76 33.9662 47.56C32.0762 46.83 30.2562 45.96 28.5162 44.97C24.4962 47.74 19.7962 49.58 14.7662 50.19C14.2762 49.53 13.8262 48.86 13.4362 48.18C14.6862 47.89 15.9262 47.53 17.1462 47.1C19.3462 46.33 21.4763 45.34 23.4863 44.16C24.1263 43.79 24.7463 43.39 25.3663 42.98C23.8163 41.9 22.3362 40.72 20.9462 39.44C18.0362 41.17 14.8263 42.44 11.4263 43.14C11.2263 42.29 11.0962 41.43 11.0162 40.55C11.1062 40.52 11.2063 40.49 11.2963 40.45C13.4963 39.68 15.6262 38.69 17.6362 37.51C17.9262 37.34 18.2162 37.17 18.4962 36.99C17.2762 35.67 16.1463 34.26 15.1063 32.79C13.9163 33.5 12.6762 34.13 11.3962 34.68C11.8562 32.51 12.5162 31.11 12.5662 31.02L13.5963 29.02L11.7562 27.67C8.60623 25.36 6.69624 22.78 6.08624 20.01C6.02624 19.75 5.98624 19.5 5.95624 19.27L15.7562 22.38L40.4562 6.44998C40.9562 6.81998 41.5462 7.26 42.1362 7.75C44.0162 9.28 44.7762 10.21 45.0762 10.66C43.7762 13.35 42.6162 16.08 41.6362 18.77C40.7862 21.1 40.0662 23.4 39.4962 25.63C38.8062 28.32 38.4863 30.26 38.3563 31.22C36.2863 34.33 34.2462 33.94 32.2762 33.56C31.5462 33.42 29.4062 32.94 28.6462 32.77L26.0463 32.18L24.8663 37.39L27.4662 37.98C27.5862 38.01 30.3062 38.62 31.2762 38.81C32.4262 39.03 34.5563 39.44 36.8463 38.81C39.1963 38.17 41.2163 36.59 42.8463 34.12C44.2463 34.55 46.4863 35.15 49.0463 35.5C50.4863 35.7 51.8663 35.8 53.1763 35.8C54.1963 35.8 55.1763 35.74 56.1063 35.62C57.6163 35.42 58.9962 35.07 60.2562 34.56V36.6L52.0563 52.29L37.0762 59.38C35.7962 59.41 33.5462 59.39 30.8762 59.01ZM23.7062 77.51C23.8362 77.18 24.1663 76.32 26.1163 76.03C26.2663 76.01 26.4262 75.99 26.5762 75.98V83.64C26.0562 83.76 25.5463 83.86 25.0463 83.95L24.5963 83.44C24.5963 83.43 24.0662 82.79 23.6862 81.78C23.1562 80.35 23.1562 78.92 23.7062 77.51ZM15.1763 88.74C14.2563 89.66 13.4262 90.66 12.6862 91.73C11.6962 93.17 10.8762 94.73 10.2562 96.38C10.0762 96.87 9.90623 97.37 9.75623 97.87C9.09623 96.37 8.50623 94.77 8.00623 93.06C7.21623 90.36 6.77625 87.86 6.53625 85.99C8.75626 86.94 11.7163 88 15.1763 88.74ZM32.8063 124.05C30.3863 124.09 26.6763 124 22.8063 123.33C13.4363 121.72 7.62626 117.71 5.53625 111.42C5.02625 109.88 5.51627 108.15 6.98627 106.28C7.24627 105.95 7.50625 105.65 7.77625 105.37C7.78625 105.38 7.78626 105.39 7.79626 105.4C10.4663 109.44 13.8462 112.63 17.8262 114.89C21.7462 117.11 26.0362 118.22 30.6362 118.22C31.2962 118.22 31.9562 118.2 32.6362 118.15L34.1562 124.02C33.7363 124.03 33.2863 124.04 32.8063 124.05ZM60.0662 98.6C58.2462 100.29 53.3762 104.57 47.0862 108.01C36.7762 113.65 27.8162 114.39 20.4562 110.22C18.1162 108.89 16.0362 107.18 14.2462 105.1C14.0762 102.77 14.4162 100.47 15.2462 98.25C16.6762 94.44 19.4962 91.33 23.0662 89.51C25.2362 89.39 27.5162 88.99 29.5662 88.33C33.7262 87 36.9263 84.73 38.7963 81.76C40.3663 79.27 40.9963 76.36 40.6663 73.12C40.4963 71.45 40.0563 69.67 39.3663 67.83C39.2863 67.61 39.1963 67.39 39.1063 67.16L52.0262 73.27L60.0563 88.65V98.6H60.0662ZM62.9062 82.57L55.9462 69.25L42.3362 62.81L42.3563 62.8L42.3362 62.79L55.9462 56.35L62.9062 43.03L69.8663 56.35L83.4763 62.79L83.4562 62.8L83.4763 62.81L69.8663 69.25L62.9062 82.57ZM114.156 79.54C112.346 79.72 110.976 80.08 109.986 80.62C108.676 81.34 107.656 82.44 106.936 83.88C106.406 84.95 106.056 86.23 105.876 87.68C105.586 90.06 105.826 92.46 105.976 93.89C105.986 94.02 106.006 94.14 106.016 94.26C106.956 103.92 99.2763 111.18 93.1063 117.01C89.6863 120.24 86.9062 122.87 85.7662 125.62C85.2462 125.5 84.4162 125.22 83.2762 124.63C81.7762 123.85 80.6563 122.98 80.3663 122.64C80.2063 122.46 79.4063 121.31 78.9263 116.99C78.5963 114.08 78.4863 110.35 78.5963 106.2C78.8263 97.99 79.8563 90.66 80.6763 88.57C80.7163 88.47 80.9162 88.09 81.7162 87.59C82.3862 87.17 83.2763 86.79 84.3563 86.45C86.3663 85.82 88.2863 85.6 88.3063 85.6L87.7162 80.29C87.6162 80.3 85.3463 80.56 82.8663 81.32C81.3263 81.79 80.0062 82.36 78.9362 83.02C77.3362 84 76.2462 85.21 75.7062 86.61C74.6062 89.4 73.8062 95.86 73.4362 101.97C71.7062 100.7 69.7962 98.18 67.4662 94.11L65.4062 89.53V89.27L73.7662 73.27L89.2162 65.96H100.456C100.366 67.83 100.286 70.29 100.286 72.42C99.7963 72.81 99.3163 73.24 98.8663 73.71C97.9463 74.67 97.1663 75.85 96.5563 77.2C96.0863 78.23 95.7162 79.37 95.4562 80.58C95.0162 82.58 95.0062 84.13 95.0062 84.31H100.346V84.32C100.346 84.31 100.356 83.12 100.696 81.62C100.986 80.37 101.566 78.62 102.726 77.41C104.166 75.91 105.786 75.21 107.686 75.26C110.226 75.34 113.316 76.76 116.636 79.37C115.726 79.41 114.906 79.46 114.156 79.54Z" fill="#471A0B"/>
<path d="M97.6762 97.9404H92.5962V103.02H97.6762V97.9404Z" fill="#471A0B"/>
<path d="M47.9162 86.0402C46.8162 84.3302 45.2862 82.9102 43.4962 81.9402L41.1562 80.6602L38.5962 85.3502L40.9362 86.6302C43.0362 87.7802 44.3762 89.8902 44.5162 92.2802L44.6762 94.9502L50.0062 94.6302L49.8462 91.9601C49.7262 89.8501 49.0562 87.8002 47.9162 86.0402Z" fill="#471A0B"/>
<path d="M26.9708 99.0124L26.4272 104.063L31.4783 104.607L32.0219 99.556L26.9708 99.0124Z" fill="#471A0B"/>
</svg>
