<svg width="66" height="66" viewBox="0 0 66 66" fill="none" xmlns="http://www.w3.org/2000/svg">
<path d="M32.3947 16.3024C33.6785 16.3024 34.7191 15.2376 34.7191 13.9241C34.7191 12.6106 33.6785 11.5458 32.3947 11.5458C31.111 11.5458 30.0703 12.6106 30.0703 13.9241C30.0703 15.2376 31.111 16.3024 32.3947 16.3024Z" fill="#242424"/>
<path d="M39.6768 16.4213C41.4097 16.4213 42.8146 14.9838 42.8146 13.2106C42.8146 11.4375 41.4097 10 39.6768 10C37.9439 10 36.5391 11.4375 36.5391 13.2106C36.5391 14.9838 37.9439 16.4213 39.6768 16.4213Z" fill="#242424"/>
<path d="M30.0707 20.9002C30.2095 20.3325 31.1553 19.6317 31.9933 19.6317C33.1698 19.6317 33.8594 20.7278 33.8669 21.3757C33.9445 27.9552 33.7894 35.8432 35.0678 37.8647C35.699 38.8631 38.3217 38.7366 39.2126 37.6664C39.7538 37.0165 37.3347 26.284 37.0433 22.2476C36.9806 21.3771 37.0433 20.0279 39.6774 20.0279C41.8975 20.0279 42.5633 21.1024 42.8151 22.0097C43.9384 26.0573 44.9283 34.5397 44.6358 38.7364C44.5896 39.3992 44.2893 40.6851 43.8611 41.273C42.8349 42.6813 41.0778 43.3691 38.9366 43.5171C37.1345 43.6415 33.0158 43.6159 31.2433 42.009C30.1947 41.0584 29.7993 39.9686 29.7218 38.102C29.5461 33.8654 29.0633 25.0224 30.0707 20.9002Z" fill="#242424"/>
<path d="M24.6573 12.2508C24.6408 11.6622 24.6077 9.88431 23.0641 10.0073C20.9026 10.1797 20.8233 12.2974 20.8233 12.2974C20.8233 12.2974 18.7232 39.1639 19.0308 48.1269C19.0799 49.558 18.7351 51.9578 20.4997 53.6676C21.7197 54.8496 23.4626 55.0958 25.2302 54.9708C30.523 54.5965 42.0326 53.6242 45.8451 49.9737C46.4688 49.3767 47.3751 48.0861 46.9655 46.7232C46.7067 45.8618 45.7705 45.3194 44.502 45.6412C38.8818 47.0662 28.6909 47.9298 26.1516 47.8066C25.8971 47.7942 25.1985 47.6894 25.1308 46.206C24.6887 36.5253 24.9525 22.701 24.6573 12.2508Z" fill="#242424"/>
</svg>
