<svg width="66" height="66" viewBox="0 0 66 66" fill="none" xmlns="http://www.w3.org/2000/svg">
<path d="M16 55.5V16.5H20.3333V20.8333H24.6667V16.5H42V20.8333H46.3333V16.5H50.6667V55.5H46.3333V51.1667H42V55.5H24.6667V51.1667H20.3333V55.5H16ZM20.3333 46.8333H24.6667V42.5H20.3333V46.8333ZM20.3333 38.1667H24.6667V33.8333H20.3333V38.1667ZM20.3333 29.5H24.6667V25.1667H20.3333V29.5ZM42 46.8333H46.3333V42.5H42V46.8333ZM42 38.1667H46.3333V33.8333H42V38.1667ZM42 29.5H46.3333V25.1667H42V29.5Z" fill="#1C1B1F"/>
</svg>
