<svg width="66" height="66" viewBox="0 0 66 66" fill="none" xmlns="http://www.w3.org/2000/svg">
<path d="M50.2687 54.5816C48.4495 51.6004 48.3532 45.1405 45.5495 41.5222C44.4532 40.1084 43.1107 39.0423 41.6237 38.2569C43.7097 35.8918 44.9902 32.7677 44.9902 29.3294C44.9902 22.0311 39.2676 16.1094 32.175 16.0088L32.9821 16H27.7414H20V23.4978V48.4569H27.4282V38.5375L29.0013 40.7244C28.9307 44.7539 29.466 48.0651 32.6276 51.6975C38.4191 58.3516 49.2998 59.7354 55 58.6835C55 58.6835 52.1309 57.6368 50.2687 54.5816ZM43.5014 52.8518C41.4258 51.3586 39.4775 49.673 37.648 47.8515C35.8185 46.0371 34.094 44.1132 32.4693 42.087C32.0889 41.6051 31.7258 41.1162 31.3592 40.6291L27.4265 34.7339V34.395V33.2231V27.7391V23.4978H27.7225H31.1148L30.6484 23.5031C30.8807 23.5013 31.1475 23.4996 31.1544 23.4978H32.0063C35.2368 23.9179 37.7375 26.7401 37.7375 30.1678C37.7375 32.3194 36.7496 34.2291 35.2178 35.4611C37.5895 35.7506 39.7512 36.7284 41.5101 38.2004C38.4638 36.6296 34.8185 36.236 31.3764 36.5607C32.1646 38.0416 33.0562 39.5171 33.9804 40.9309C35.3745 43.0348 36.8804 45.0787 38.5154 47.0079C40.1556 48.9229 41.9352 50.7285 43.8646 52.3647C45.7887 54.0026 47.83 55.5223 50.0347 56.7702C47.7387 55.7041 45.5702 54.3468 43.5014 52.8518Z" fill="#242424"/>
</svg>
