<svg width="45" height="45" viewBox="0 0 45 45" fill="none" xmlns="http://www.w3.org/2000/svg">
<rect x="3.5" y="7.5" width="38.4545" height="30" rx="3.5" stroke="#242424"/>
<path d="M41.9541 13.1365V33.9998C41.9541 35.9328 40.3871 37.4998 38.4541 37.4998H7C5.067 37.4998 3.5 35.9328 3.5 33.9998V13.1365H41.9541Z" stroke="#242424"/>
<path d="M25.2637 25.1636H38.2273M25.2637 27.6999H33.7182" stroke="#242424"/>
<path d="M25.2637 30.6726H38.2273M25.2637 33.209H33.7182" stroke="#242424"/>
<rect x="6.88086" y="16.5181" width="14.7818" height="17.6" stroke="#242424"/>
<rect x="25.4824" y="16.5181" width="13.0909" height="6.32727" stroke="#242424"/>
<circle cx="6.66381" cy="10.6636" r="0.845455" fill="#242424"/>
<circle cx="8.91772" cy="10.6636" r="0.845455" fill="#242424"/>
<circle cx="11.1736" cy="10.6636" r="0.845455" fill="#242424"/>
<path d="M38.5086 16.8635L25.5449 22.4999V16.8635H38.5086Z" fill="#242424"/>
<path d="M21.5999 16.5818L6.94531 34.0545M6.94531 16.5818L21.5999 34.0545" stroke="#242424"/>
</svg>
