<svg width="66" height="66" viewBox="0 0 66 66" fill="none" xmlns="http://www.w3.org/2000/svg">
<path d="M51.1642 32.4629H36.7239V18.5556C36.7239 16.0399 38.8893 14 41.5597 14C44.2302 14 46.3955 16.0399 46.3955 18.5556V23.3517H51.1642C53.8346 23.3517 56 25.3916 56 27.9073C56 30.423 53.8346 32.4629 51.1642 32.4629Z" fill="#242424"/>
<path d="M41.5597 57C38.8893 57 36.7239 54.9601 36.7239 52.4444V38.5371H51.1642C53.8346 38.5371 56 40.577 56 43.0927C56 45.6084 53.8346 47.6483 51.1642 47.6483H46.3955V52.4444C46.3955 54.9601 44.2302 57 41.5597 57Z" fill="#242424"/>
<path d="M15.8358 32.4629H30.2761V18.5556C30.2761 16.0399 28.1107 14 25.4403 14C22.7698 14 20.6045 16.0399 20.6045 18.5556V23.3517H15.8358C13.1654 23.3517 11 25.3916 11 27.9073C11 30.423 13.1654 32.4629 15.8358 32.4629Z" fill="#242424"/>
<path d="M25.4403 57C28.1107 57 30.2761 54.9601 30.2761 52.4444V38.5371H15.8358C13.1654 38.5371 11 40.577 11 43.0927C11 45.6084 13.1654 47.6483 15.8358 47.6483H20.6045V52.4444C20.6045 54.9601 22.7698 57 25.4403 57Z" fill="#242424"/>
</svg>
