<svg width="66" height="66" viewBox="0 0 66 66" fill="none" xmlns="http://www.w3.org/2000/svg">
<path d="M53.0077 35.0084L49.0028 31.0035L45.0105 27.0112L41.0056 23.0021L37.0007 26.9944L33.0084 31.0035L29.0035 26.9944L25.0112 23.0021L21.0021 27.0112L16.9972 31.0035L13.0049 35.0084L9 39.0007L12.9923 43.0056L16.9972 39.0007L21.0021 34.9916L24.9944 31.0035L29.0035 35.0084L24.9944 39.0007L21.0021 43.0056L16.9972 46.9979L21.0021 51.0028L25.0112 47.0105L29.0035 43.0056L33.0084 39.0133L37.0133 35.0084L41.0056 31.0035L44.9979 34.9916L49.0028 39.0007L52.9951 43.0056L57 39.0007L53.0077 35.0084Z" fill="#242424"/>
<path d="M32.9894 23.0021L36.9985 18.9972L41.0034 14.9923L36.9985 11L33.0062 15.0049L29.0013 11L24.9922 14.9923L29.0013 18.9972L32.9894 23.0021Z" fill="#242424"/>
<path d="M41.0034 39.0007L36.9985 43.0056L32.9894 46.9979L29.0013 51.0028L24.9922 54.9951L29.0013 59L33.0062 55.0077L36.9985 59L41.0034 54.9951L36.9985 51.0028L41.0034 47.0105L44.9957 51.0028L49.0006 46.9979L45.0083 43.0056L41.0034 39.0007Z" fill="#242424"/>
</svg>
