<svg width="66" height="66" viewBox="0 0 66 66" fill="none" xmlns="http://www.w3.org/2000/svg">
<path d="M15.1585 14.3357L13.791 15.913L15.3683 17.2806L16.7359 15.7032L15.1585 14.3357Z" fill="#242424"/>
<path d="M46.6826 17.1292H44.4961V19.3157H46.6826V17.1292Z" fill="#242424"/>
<path d="M37.3399 25.2857L38.1233 26.1293L39.8062 24.5626L39.0229 23.719C38.3213 22.9615 38.0587 21.9199 38.3256 20.9256L38.6226 19.8151L36.4016 19.2212L36.1047 20.3316C35.8679 21.2097 35.8636 22.1351 36.0917 23.0131C36.3156 23.8567 36.746 24.6401 37.3399 25.2857Z" fill="#242424"/>
<path d="M59.1261 39.7043C59.0873 39.6613 58.1792 38.5852 56.8234 37.4963C56.0142 36.8421 55.2093 36.317 54.426 35.9253C53.393 35.4088 52.3944 35.1333 51.4604 35.1032C51.1376 35.0946 50.8234 35.1118 50.5135 35.1591C50.535 34.1692 50.5867 33.0888 50.634 32.3141L50.7072 31.096H48.1333C49.7129 30.02 50.6297 29.0473 51.0859 27.9884C54.4518 27.6355 56.281 26.5724 57.2366 25.7115C57.7918 25.2123 58.205 24.4676 58.4632 23.4949C58.6483 22.8105 58.7602 21.9971 58.8033 21.0803C58.8721 19.5652 58.7215 18.2611 58.7172 18.2051L58.5665 16.9053L57.2968 17.2238C57.2925 17.2238 56.6942 17.3658 55.7215 17.3701C55.6957 17.3701 55.6742 17.3701 55.6483 17.3701C54.6842 17.3701 53.2079 17.2367 51.5077 16.6212C51.1118 16.4792 50.7803 16.2984 50.4963 16.0832L54.6584 8.45192L53.5436 7.93542C53.4317 7.88377 52.3944 7.41893 51.0214 7.2855C50.3198 7.21663 49.657 7.25106 49.0372 7.37588C49.0544 6.98421 49.063 6.73887 49.063 6.72596L49.1189 5.48636L47.8793 5.52941C47.8277 5.52941 47.3456 5.55093 46.6527 5.69727C45.7187 5.89526 44.8492 6.22237 44.0659 6.67C42.9425 7.31132 42.0429 8.18076 41.3973 9.24388C41.1821 9.59682 40.997 9.97558 40.8378 10.3716C40.3213 10.109 39.4992 9.72164 38.4834 9.3687C37.4633 9.01576 36.4475 8.76612 35.4705 8.62839C34.2223 8.45192 33.0257 8.46053 31.9153 8.64561L30.9555 8.80486V17.2152L30.8479 17.2969C29.6728 18.1965 27.8306 18.1707 26.4878 17.9899C25.4548 17.8522 24.5509 17.5982 24.043 17.439C24.1033 17.1635 24.1764 16.8579 24.2625 16.5179C24.6241 15.1363 25.3213 12.9368 26.6126 10.3199C26.746 10.0488 26.8708 9.60543 26.6943 9.02867C26.6083 8.7446 26.4619 8.46053 26.2424 8.15924C25.9497 7.75465 25.5322 7.31993 24.9641 6.82926C24.0731 6.05882 23.1305 5.43902 23.0918 5.41319L22.4677 5L11.4663 12.0975L5.83217 10.3113L5.46201 11.3615C5.42327 11.4734 5.08755 12.4849 5.35871 13.901C5.51366 14.7188 5.83647 15.5107 6.31853 16.2639C6.75755 16.9483 7.33001 17.5939 8.02297 18.1879C7.77764 18.9067 7.48926 20.0215 7.44622 21.3557C7.39887 22.7288 7.61408 24.0631 8.08754 25.3242C8.6729 26.8866 9.65424 28.3199 11.0057 29.5896C11.944 30.4762 13.0976 31.195 14.4318 31.7287C15.4734 32.1462 16.6313 32.4518 17.8666 32.6369C18.1549 32.6799 18.4304 32.7144 18.6972 32.7402L18.7489 32.822C19.6313 34.2768 20.1348 35.5766 20.251 36.6914C20.3414 37.5738 20.1908 38.3098 19.7905 38.9468C19.5236 39.3729 19.1621 39.7129 18.7704 39.9927V35.624L17.8321 35.4518C17.7417 35.4346 16.9412 35.2969 16.0115 35.4217C15.4089 35.5035 14.8752 35.6799 14.4232 35.9468C14.1306 36.119 13.8766 36.3299 13.6614 36.5752C13.4204 36.8464 13.231 37.1606 13.0976 37.5049C12.6542 38.6369 12.6499 39.842 13.0803 40.9826C13.0976 41.0257 13.1148 41.073 13.132 41.1161C11.4448 40.875 10.0072 40.3887 9.05597 40.0013C7.89815 39.5321 7.18797 39.0974 7.16645 39.0845L5.43188 37.9956L5.41036 40.0486C5.41036 40.1519 5.39314 42.6268 6.25827 45.6139C6.52944 46.5436 6.85225 47.4216 7.23101 48.248C6.93833 48.5106 6.6026 48.8506 6.2841 49.2466C5.79343 49.8578 5.44049 50.4905 5.23819 51.1275C4.96703 51.9883 4.96273 52.8406 5.23819 53.6626C5.90103 55.6598 7.20519 57.2695 9.11623 58.4445C10.5796 59.3441 12.396 59.9811 14.5179 60.3427C16.076 60.6052 17.561 60.6827 18.7446 60.6827C20.2424 60.6827 21.2625 60.5622 21.3357 60.5536L22.6398 60.3943L21.3701 55.4876C22.9971 55.1045 24.6843 54.4374 26.4103 53.4948C28.3601 52.4274 30.0042 51.1964 31.0372 50.3485C32.1649 49.4274 32.8321 48.7559 32.8579 48.7258L33.1807 48.3987C34.3428 50.0988 35.3844 51.0113 36.5551 51.4073C36.5336 52.9955 36.5939 54.4331 36.723 55.6038C36.8134 56.3915 36.9382 57.0758 37.0932 57.6354C37.2912 58.3413 37.5451 58.8707 37.8679 59.258C38.3285 59.8047 39.2194 60.3728 39.9038 60.7171C40.7861 61.1648 41.5523 61.3929 42.1893 61.3929C42.3657 61.3929 42.5336 61.3757 42.6885 61.3412C43.0071 61.2724 43.2825 61.1303 43.5106 60.928C43.7603 60.7042 43.9367 60.4115 44.0314 60.0758C44.2251 59.3613 45.4776 58.1734 46.6914 57.0242C48.129 55.6641 49.7603 54.1232 51.0214 52.2466C51.7359 51.1878 52.2394 50.1548 52.5709 49.0873C52.9496 47.8607 53.0788 46.5996 52.9582 45.3384C52.9539 45.2868 52.9496 45.2308 52.941 45.1706C52.8851 44.6153 52.799 43.7803 52.8937 43.0056C52.9496 42.5278 53.1003 41.9123 53.4833 41.7057C53.535 41.6756 54.0472 41.426 56.0228 41.4604C57.1333 41.4776 58.1232 41.5809 58.1318 41.5809L60.9683 41.8736L59.1261 39.7043ZM48.964 9.80343C49.4805 9.59683 50.0745 9.51934 50.7459 9.5796C50.9697 9.59682 51.1849 9.63126 51.3786 9.67L49.1319 13.7891C49.0243 13.2941 48.9769 12.7819 48.9554 12.2783C48.9296 11.7145 48.9425 10.7633 48.964 9.80343ZM33.2582 10.8235C34.9325 10.7417 36.5465 11.1463 37.6828 11.5337C39.1979 12.0545 40.2352 12.67 40.2438 12.6743L40.2868 12.6054C40.2352 13.0444 40.2051 13.5007 40.2051 13.9741V15.1233H42.5035V13.9741C42.5035 11.5165 43.3944 9.74747 45.1419 8.71447C45.6885 8.39166 46.2438 8.18506 46.7172 8.05594C46.6699 9.41605 46.6139 11.3916 46.6613 12.3773C46.7 13.2209 46.8119 14.4777 47.3499 15.6786C47.6555 16.3629 48.073 16.9655 48.5809 17.4605C49.1706 18.0329 49.8937 18.4806 50.7287 18.7819C52.6699 19.4834 54.3829 19.6642 55.6483 19.6642C55.9711 19.6642 56.2595 19.6513 56.5221 19.6341C56.535 20.0344 56.5393 20.5035 56.5178 20.9942C56.4833 21.7388 56.3929 22.3801 56.2509 22.9009C56.1089 23.4174 55.9195 23.8048 55.7086 23.9985C55.0931 24.5537 53.5651 25.5178 50.2337 25.7503H45.327V28.0487H48.2753C47.6598 28.6685 46.6957 29.3485 45.3184 30.1405L43.8205 30.8206L36.7919 27.4935L33.2625 20.7403V10.8235H33.2582ZM18.3228 30.3988C18.8909 30.1534 19.4419 29.8693 19.9756 29.5551C20.8321 29.0516 21.6456 28.4619 22.3945 27.8077C22.8551 27.4031 23.2941 26.9683 23.703 26.5121C22.7862 26.3916 21.8952 26.1979 21.0258 25.9397C19.1922 27.6054 16.8981 28.7589 14.3802 29.1936C14.0359 29.0128 13.7001 28.8105 13.3773 28.5824C13.8981 28.4576 14.4189 28.3069 14.9268 28.1305C15.8737 27.799 16.7905 27.3729 17.6556 26.865C18.3572 26.4562 19.0244 25.987 19.6528 25.4705C18.8393 25.1563 18.0559 24.7818 17.307 24.3557C15.5767 25.548 13.5538 26.3399 11.3888 26.6025C11.1779 26.3184 10.9842 26.03 10.8164 25.7374C11.3544 25.6125 11.8881 25.4576 12.4132 25.2725C13.3601 24.9411 14.2769 24.515 15.142 24.0071C15.4175 23.8478 15.6844 23.6757 15.9512 23.4992C15.2841 23.0344 14.6471 22.5265 14.0488 21.9755C12.7963 22.7202 11.4146 23.2668 9.95123 23.5681C9.86515 23.2022 9.80919 22.8321 9.77476 22.4533C9.8135 22.4404 9.85654 22.4275 9.89527 22.4103C10.8422 22.0788 11.759 21.6527 12.6241 21.1448C12.7489 21.0717 12.8737 20.9985 12.9943 20.921C12.4692 20.3529 11.9828 19.746 11.5352 19.1133C11.023 19.4189 10.4892 19.69 9.93832 19.9268C10.1363 18.9928 10.4204 18.3902 10.4419 18.3514L10.8852 17.4906L10.0933 16.9096C8.73746 15.9153 7.91537 14.8048 7.65282 13.6126C7.62699 13.5007 7.60978 13.3931 7.59686 13.2941L11.8149 14.6327L22.4462 7.77617C22.6614 7.93542 22.9153 8.1248 23.1693 8.3314C23.9784 8.98994 24.3055 9.39022 24.4347 9.58391C23.8751 10.7417 23.3759 11.9168 22.954 13.0746C22.5882 14.0774 22.2783 15.0674 22.033 16.0272C21.736 17.185 21.5982 18.02 21.5423 18.4332C20.6513 19.7718 19.7733 19.604 18.9254 19.4404C18.6112 19.3801 17.6901 19.1735 17.363 19.1004L16.2439 18.8464L15.736 21.0889L16.8551 21.3428C16.9067 21.3557 18.0775 21.6183 18.495 21.7001C18.9899 21.7948 19.9067 21.9712 20.8924 21.7001C21.9038 21.4246 22.7733 20.7446 23.4749 19.6814C24.0774 19.8665 25.0416 20.1248 26.1434 20.2754C26.7632 20.3615 27.3572 20.4045 27.921 20.4045C28.3601 20.4045 28.7819 20.3787 29.1821 20.327C29.8321 20.241 30.426 20.0903 30.9684 19.8708V20.7489L27.439 27.5021L20.9914 30.5537C20.4404 30.5709 19.472 30.5623 18.3228 30.3988ZM15.2367 38.3614C15.2927 38.2194 15.4347 37.8492 16.274 37.7244C16.3386 37.7158 16.4074 37.7072 16.472 37.7029V40.9999C16.2482 41.0515 16.0287 41.0945 15.8135 41.1333L15.6198 40.9138C15.6198 40.9095 15.3917 40.634 15.2281 40.1993C15 39.5838 15.0043 38.9683 15.2367 38.3614ZM11.5653 43.1907C11.1693 43.5866 10.8121 44.0171 10.4936 44.4776C10.0674 45.0974 9.7145 45.7688 9.44765 46.479C9.37017 46.6899 9.297 46.9051 9.23244 47.1203C8.94837 46.4747 8.69442 45.7861 8.47921 45.0501C8.13919 43.8879 7.9498 42.8119 7.8465 42.007C8.80633 42.4202 10.0761 42.8765 11.5653 43.1907ZM19.1535 58.3929C18.1119 58.4101 16.515 58.3714 14.8493 58.083C10.8164 57.39 8.31566 55.6641 7.41609 52.9568C7.19658 52.2939 7.40748 51.5493 8.04019 50.7444C8.1521 50.6024 8.26401 50.4733 8.38022 50.3528C8.38452 50.3571 8.38452 50.3614 8.38882 50.3657C9.53803 52.1045 10.9928 53.4776 12.7059 54.4503C14.3931 55.4058 16.2396 55.8836 18.2195 55.8836C18.5036 55.8836 18.7876 55.875 19.0803 55.8535L19.7345 58.38C19.5581 58.3843 19.3601 58.3886 19.1535 58.3929ZM30.8909 47.4389C30.1075 48.1663 28.0114 50.0084 25.3041 51.4891C20.8665 53.9166 17.01 54.2351 13.8422 52.4403C12.835 51.8678 11.9397 51.1318 11.1693 50.2366C11.0961 49.2337 11.2425 48.2437 11.5997 47.2882C12.2152 45.6483 13.429 44.3097 14.9656 43.5264C15.8996 43.4747 16.8809 43.3026 17.7632 43.0185C19.5538 42.446 20.9311 41.469 21.736 40.1907C22.4117 39.119 22.6829 37.8664 22.5409 36.4719C22.4677 35.7531 22.2783 34.987 21.9813 34.195C21.9469 34.1003 21.9081 34.0056 21.8694 33.9066L27.4304 36.5365L30.8866 43.1562V47.4389H30.8909ZM32.109 40.5393L29.1133 34.8062L23.2553 32.0343L23.2639 32.03L23.2553 32.0257L29.1133 29.2539L32.109 23.5207L35.1046 29.2539L40.9626 32.0257L40.954 32.03L40.9626 32.0343L35.1046 34.8062L32.109 40.5393ZM54.1677 39.2309C53.3887 39.3083 52.799 39.4633 52.3729 39.6957C51.809 40.0056 51.37 40.4791 51.0601 41.0989C50.832 41.5594 50.6813 42.1103 50.6039 42.7344C50.4791 43.7588 50.5824 44.7918 50.6469 45.4073C50.6512 45.4633 50.6598 45.5149 50.6641 45.5666C51.0687 49.7244 47.7631 52.8492 45.1075 55.3585C43.6355 56.7487 42.4389 57.8807 41.9482 59.0643C41.7244 59.0127 41.3672 58.8922 40.8765 58.6382C40.2309 58.3025 39.7488 57.9281 39.624 57.7817C39.5551 57.7042 39.2108 57.2093 39.0042 55.3499C38.8622 54.0974 38.8148 52.4919 38.8622 50.7057C38.9612 47.172 39.4045 44.0171 39.7574 43.1175C39.7746 43.0745 39.8607 42.9109 40.2051 42.6957C40.4934 42.5149 40.8765 42.3514 41.3414 42.205C42.2065 41.9339 43.0329 41.8392 43.0415 41.8392L42.7875 39.5537C42.7445 39.558 41.7675 39.6699 40.7 39.997C40.0372 40.1993 39.469 40.4446 39.0085 40.7287C38.3198 41.1505 37.8507 41.6713 37.6183 42.2739C37.1448 43.4747 36.8005 46.2552 36.6412 48.885C35.8966 48.3384 35.0745 47.2538 34.0717 45.502L33.185 43.5307V43.4188L36.7833 36.5322L43.4332 33.3858H48.271C48.2323 34.1907 48.1979 35.2495 48.1979 36.1663C47.987 36.3342 47.7804 36.5192 47.5867 36.7215C47.1907 37.1347 46.855 37.6426 46.5924 38.2237C46.3901 38.667 46.2309 39.1577 46.119 39.6785C45.9296 40.5393 45.9253 41.2065 45.9253 41.2839H48.2237V41.2882C48.2237 41.2839 48.228 40.7717 48.3743 40.1261C48.4991 39.5881 48.7488 38.8349 49.2481 38.3141C49.8679 37.6684 50.5651 37.3672 51.3829 37.393C52.4762 37.4274 53.8062 38.0386 55.2351 39.162C54.8478 39.1792 54.4905 39.2007 54.1677 39.2309Z" fill="#242424"/>
<path d="M47.0713 47.1548H44.8848V49.3413H47.0713V47.1548Z" fill="#242424"/>
<path d="M25.656 42.0331C25.1825 41.2971 24.524 40.6859 23.7536 40.2684L22.7464 39.7174L21.6445 41.7361L22.6517 42.287C23.5556 42.782 24.1323 43.6902 24.1926 44.7189L24.2615 45.868L26.5556 45.7303L26.4867 44.5811C26.435 43.6729 26.1467 42.7906 25.656 42.0331Z" fill="#242424"/>
<path d="M16.6343 47.6271L16.4004 49.8011L18.5744 50.0351L18.8084 47.861L16.6343 47.6271Z" fill="#242424"/>
</svg>
