<svg width="45" height="45" viewBox="0 0 45 45" fill="none" xmlns="http://www.w3.org/2000/svg">
<path d="M20.7723 17.3482C20.5333 17.3273 20.3176 17.2988 20.1296 17.2654C18.3085 17.2654 13.9594 16.6844 11.1314 14.3605C8.30335 12.0365 8.23908 7.15183 8.56044 5C8.98895 5.32277 10.103 5.96832 11.1314 5.96832C12.4168 5.96832 15.1262 5.95842 16.5945 6.61387C19.4868 7.90497 19.8336 10.1644 20.8104 11.4555M20.7723 17.3482C22.8479 17.5299 26.6826 17.1391 29.4492 14.3605C32.5343 11.2618 32.8771 6.82906 32.6628 5C32.3415 5.10759 31.2488 5.45188 29.4492 5.96832C27.1996 6.61387 24.9501 6.2911 23.986 6.93665C23.0958 7.5327 21.1097 8.95429 20.8104 11.4555M20.7723 17.3482V16.9081M20.7723 17.3482V25.5227V26.3031V26.9487V27.917V33.3878M20.8104 11.4555C20.7855 11.6632 20.7723 11.8783 20.7723 12.101V16.9081M27.1996 9.84162L20.8104 16.9427L20.7723 16.9081M20.7723 16.9081L13.7022 10.4872M10.4486 40H6M10.4486 40C10.2368 39.1913 10.1308 37.2965 11.4019 36.1874C12.6729 35.0782 14.4735 35.2631 15.215 35.4942C15.6386 34.6854 16.7839 33.146 17.757 32.7214C19.3458 32.0281 21.2523 33.7612 21.2523 33.7612C21.5701 32.7214 22.512 30.9925 23.4766 30.6418C25.3832 29.9485 26.5685 31.7535 26.6542 31.6816C28.0312 30.5262 30.4856 29.3646 32.3738 31.6816C34.9159 34.8009 33.5389 36.9961 33.3271 37.9204C33.9626 38.267 35.2336 39.1682 35.2336 40M10.4486 40H35.2336M40 40H35.2336" stroke="#242424"/>
<circle cx="30" cy="34" r="1" fill="#242424"/>
<path d="M22 37C22 37 23.5 38.5 25 38C26.5 37.5 27 36 27 36" stroke="#242424"/>
<circle cx="19" cy="36" r="1" fill="#242424"/>
<ellipse cx="23.7523" cy="23.5688" rx="3.81478" ry="2" transform="rotate(-28.2817 23.7523 23.5688)" fill="#242424"/>
<ellipse cx="18.0225" cy="26.3282" rx="3.5" ry="2" transform="rotate(25.9065 18.0225 26.3282)" fill="#242424"/>
<circle cx="35" cy="25" r="1" fill="#242424"/>
<circle cx="37.5" cy="32.5" r="0.5" fill="#242424"/>
<circle cx="37" cy="10" r="1" fill="#242424"/>
<circle cx="35" cy="17" r="1.5" stroke="#242424"/>
<circle cx="8" cy="21" r="1" fill="#242424"/>
<circle cx="7" cy="27" r="1.5" stroke="#242424"/>
<circle cx="12" cy="31" r="1" fill="#242424"/>
</svg>
