<svg width="66" height="66" viewBox="0 0 66 66" fill="none" xmlns="http://www.w3.org/2000/svg">
<path d="M44.491 44.0122C45.0795 44.563 45.7727 44.9872 46.5283 45.2591C47.284 45.531 48.0865 45.645 48.8871 45.5941C50.1558 45.6266 51.3999 45.2366 52.4275 44.4842C53.2647 43.9351 53.8983 43.1196 54.229 42.1709H60.2068C59.57 44.8761 58.0153 47.2704 55.813 48.9378C53.699 50.3553 51.2011 51.0739 48.6651 50.994C46.8552 51.0179 45.059 50.6738 43.3833 49.9822C41.8668 49.3439 40.5069 48.3781 39.3988 47.1526C38.2954 45.8689 37.4474 44.3821 36.9013 42.7738C36.2892 40.9755 35.9896 39.0838 36.0156 37.1823C36.0041 35.313 36.314 33.4554 36.9314 31.6936C37.7642 29.2162 39.3503 27.068 41.4633 25.5557C43.5763 24.0433 46.1082 23.2442 48.6975 23.2724C50.6098 23.2324 52.5007 23.6851 54.192 24.5879C55.7205 25.4338 57.0387 26.6208 58.0492 28.0578C59.0816 29.5648 59.8216 31.256 60.2299 33.0418C60.6786 34.9602 60.8381 36.9346 60.704 38.902H42.9C42.7543 40.7479 43.3255 42.5799 44.491 44.0122ZM21.315 14.0031C22.8142 13.9757 24.3112 14.131 25.7735 14.4657C27.0054 14.7369 28.1748 15.2429 29.2192 15.9565C30.1858 16.6645 30.9489 17.6178 31.4346 18.7184C31.9919 20.0713 32.2601 21.5293 32.2231 22.9944C32.2877 24.6048 31.8806 26.1987 31.053 27.5765C30.1838 28.8771 28.9829 29.9161 27.5773 30.5837C29.4857 31.1031 31.1479 32.2938 32.2648 33.9414C33.3378 35.6868 33.8766 37.715 33.8141 39.7689C33.8509 41.4063 33.5163 43.0304 32.8359 44.5169C32.208 45.8152 31.2867 46.9462 30.1465 47.8185C28.9746 48.683 27.6553 49.3222 26.2545 49.7042C24.8027 50.1106 23.3026 50.3143 21.796 50.3094H5.25V14.0031H21.315ZM20.7716 44.1454C21.4838 44.1547 22.1961 44.0776 22.8898 43.9141C23.5242 43.7732 24.1257 43.5098 24.6612 43.1383C25.1885 42.7691 25.6117 42.2714 25.8961 41.6919C26.2245 40.9512 26.3771 40.1428 26.3378 39.3343C26.4093 38.5962 26.3127 37.8513 26.0554 37.1567C25.7981 36.4621 25.3868 35.8362 24.8532 35.327C23.721 34.4856 22.3344 34.0685 20.9311 34.147H12.7448V44.1454H20.7716ZM52.3027 30.2028C51.8046 29.6994 51.2054 29.3097 50.5456 29.0602C49.8857 28.8107 49.1806 28.7071 48.4778 28.7565C47.5446 28.7199 46.618 28.9284 45.7883 29.3616C45.1309 29.7268 44.5511 30.2191 44.0817 30.8103C43.6636 31.3633 43.3528 31.9912 43.1659 32.6609C42.9948 33.2194 42.8884 33.7942 42.8491 34.376H53.8775C53.7808 32.8579 53.2336 31.4044 52.3073 30.2052L52.3027 30.2028ZM20.3599 28.6887C21.5385 28.7374 22.6986 28.3807 23.6506 27.6769C24.5733 26.8474 25.0543 25.6207 24.9457 24.3753C24.9756 23.658 24.8345 22.944 24.534 22.2934C24.2777 21.7765 23.8806 21.3444 23.3893 21.048C22.8911 20.7217 22.3312 20.5036 21.7451 20.4077C21.1093 20.2821 20.462 20.225 19.8142 20.2372H12.7448V28.7214H20.3599V28.6887ZM55.2465 16.4285H41.4269V19.9965H55.2465V16.4285Z" fill="#242424"/>
</svg>
