<svg width="40" height="40" viewBox="0 0 40 40" fill="none" xmlns="http://www.w3.org/2000/svg">
<path d="M19.9295 9.20136C20.7853 9.20136 21.4791 8.49149 21.4791 7.61581C21.4791 6.74014 20.7853 6.03027 19.9295 6.03027C19.0737 6.03027 18.3799 6.74014 18.3799 7.61581C18.3799 8.49149 19.0737 9.20136 19.9295 9.20136Z" fill="#242424"/>
<path d="M24.7842 9.28085C25.9395 9.28085 26.876 8.32255 26.876 7.14042C26.876 5.9583 25.9395 5 24.7842 5C23.6289 5 22.6924 5.9583 22.6924 7.14042C22.6924 8.32255 23.6289 9.28085 24.7842 9.28085Z" fill="#242424"/>
<path d="M18.3798 12.2665C18.4724 11.8881 19.1029 11.4209 19.6616 11.4209C20.4459 11.4209 20.9056 12.1516 20.9106 12.5835C20.9623 16.9699 20.8589 22.2286 21.7112 23.5762C22.132 24.2418 23.8805 24.1575 24.4744 23.444C24.8352 23.0108 23.2225 15.8557 23.0282 13.1648C22.9864 12.5845 23.0282 11.685 24.7843 11.685C26.2643 11.685 26.7082 12.4014 26.8761 13.0062C27.6249 15.7046 28.2849 21.3596 28.0899 24.1573C28.0591 24.5992 27.8589 25.4565 27.5734 25.8484C26.8893 26.7873 25.7179 27.2459 24.2904 27.3445C23.089 27.4274 20.3432 27.4104 19.1616 26.3391C18.4625 25.7053 18.1989 24.9788 18.1472 23.7344C18.0301 20.91 17.7082 15.0147 18.3798 12.2665Z" fill="#242424"/>
<path d="M14.7716 6.50025C14.7605 6.10779 14.7384 4.92256 13.7094 5.00454C12.2684 5.11946 12.2155 6.53128 12.2155 6.53128C12.2155 6.53128 10.8154 24.4423 11.0205 30.4176C11.0532 31.3717 10.8234 32.9716 11.9998 34.1114C12.8132 34.8994 13.9751 35.0636 15.1534 34.9802C18.682 34.7307 26.3551 34.0825 28.8968 31.6488C29.3125 31.2508 29.9167 30.3904 29.6437 29.4818C29.4711 28.9076 28.847 28.5459 28.0013 28.7605C24.2545 29.7105 17.4606 30.2862 15.7677 30.2041C15.5981 30.1958 15.1323 30.1259 15.0872 29.137C14.7925 22.6832 14.9683 13.467 14.7716 6.50025Z" fill="#242424"/>
</svg>
