<svg width="45" height="45" viewBox="0 0 45 45" fill="none" xmlns="http://www.w3.org/2000/svg">
<mask id="mask0_556_532" style="mask-type:alpha" maskUnits="userSpaceOnUse" x="0" y="0" width="45" height="45">
<rect width="45" height="45" fill="#242424"/>
</mask>
<g mask="url(#mask0_556_532)">
<path d="M22.6875 41.25C20.0625 41.25 17.6016 40.75 15.3047 39.75C13.0078 38.75 11.0078 37.3984 9.30469 35.6953C7.60156 33.9922 6.25 31.9922 5.25 29.6953C4.25 27.3984 3.75 24.9375 3.75 22.3125C3.75 17.75 5.20312 13.7266 8.10938 10.2422C11.0156 6.75781 14.7187 4.59375 19.2188 3.75C18.6562 6.84375 18.8281 9.86719 19.7344 12.8203C20.6406 15.7734 22.2031 18.3594 24.4219 20.5781C26.6406 22.7969 29.2266 24.3594 32.1797 25.2656C35.1328 26.1719 38.1563 26.3438 41.25 25.7812C40.4375 30.2813 38.2813 33.9844 34.7813 36.8906C31.2813 39.7969 27.25 41.25 22.6875 41.25Z" fill="#242424"/>
</g>
</svg>
