<svg width="45" height="45" viewBox="0 0 45 45" fill="none" xmlns="http://www.w3.org/2000/svg">
<mask id="mask0_556_514" style="mask-type:alpha" maskUnits="userSpaceOnUse" x="0" y="0" width="45" height="45">
<rect width="45" height="45" fill="#242424"/>
</mask>
<g mask="url(#mask0_556_514)">
<path d="M21.0469 19.7344C21.7031 19.7344 22.2578 19.5078 22.7109 19.0547C23.1641 18.6016 23.3906 18.0469 23.3906 17.3906C23.3906 16.7344 23.1641 16.1797 22.7109 15.7266C22.2578 15.2734 21.7031 15.0469 21.0469 15.0469C20.3906 15.0469 19.8359 15.2734 19.3828 15.7266C18.9297 16.1797 18.7031 16.7344 18.7031 17.3906C18.7031 18.0469 18.9297 18.6016 19.3828 19.0547C19.8359 19.5078 20.3906 19.7344 21.0469 19.7344ZM38.5312 41.25C37.2187 41.25 35.4531 40.7031 33.2344 39.6094C31.0156 38.5156 28.6406 37.0312 26.1094 35.1562C25.5156 35.3125 24.9141 35.4297 24.3047 35.5078C23.6953 35.5859 23.0781 35.625 22.4531 35.625C18.7969 35.625 15.7031 34.3594 13.1719 31.8281C10.6406 29.2969 9.375 26.2031 9.375 22.5469C9.375 21.9219 9.42187 21.2969 9.51562 20.6719C9.60937 20.0469 9.73437 19.4375 9.89062 18.8438C8.04688 16.3125 6.57031 13.9453 5.46094 11.7422C4.35156 9.53906 3.79688 7.78125 3.79688 6.46875C3.79688 5.625 4.03125 4.96094 4.5 4.47656C4.96875 3.99219 5.60937 3.75 6.42187 3.75C7.23438 3.75 8.28906 4.03125 9.58594 4.59375C10.8828 5.15625 12.6719 6.10938 14.9531 7.45313C14.2969 7.79688 13.6875 8.15625 13.125 8.53125C12.5625 8.90625 12.0156 9.3125 11.4844 9.75C10.8906 9.40625 10.3125 9.10938 9.75 8.85938C9.1875 8.60938 8.59375 8.34375 7.96875 8.0625C8.53125 9.25 9.13281 10.4063 9.77344 11.5313C10.4141 12.6563 11.0938 13.7656 11.8125 14.8594C13 13.1719 14.5156 11.8437 16.3594 10.875C18.2031 9.90625 20.2344 9.42188 22.4531 9.42188C26.1094 9.42188 29.2109 10.6953 31.7578 13.2422C34.3047 15.7891 35.5781 18.8906 35.5781 22.5469C35.5781 24.7656 35.0859 26.7969 34.1016 28.6406C33.1172 30.4844 31.7813 32 30.0938 33.1875C31.1875 33.9062 32.3047 34.5938 33.4453 35.25C34.5859 35.9063 35.75 36.5 36.9375 37.0312C36.6875 36.4375 36.4297 35.8594 36.1641 35.2969C35.8984 34.7344 35.5937 34.1563 35.25 33.5625C35.7187 33.0313 36.1406 32.4688 36.5156 31.875C36.8906 31.2812 37.2344 30.6719 37.5469 30.0469C38.9844 32.4844 39.9609 34.3047 40.4766 35.5078C40.9922 36.7109 41.25 37.7188 41.25 38.5313C41.25 39.4375 41 40.1172 40.5 40.5703C40 41.0234 39.3437 41.25 38.5312 41.25ZM25.7344 28.1719C26.2656 28.1719 26.7109 27.9922 27.0703 27.6328C27.4297 27.2734 27.6094 26.8281 27.6094 26.2969C27.6094 25.7656 27.4297 25.3203 27.0703 24.9609C26.7109 24.6016 26.2656 24.4219 25.7344 24.4219C25.2031 24.4219 24.7578 24.6016 24.3984 24.9609C24.0391 25.3203 23.8594 25.7656 23.8594 26.2969C23.8594 26.8281 24.0391 27.2734 24.3984 27.6328C24.7578 27.9922 25.2031 28.1719 25.7344 28.1719ZM28.0781 21.6094C28.4844 21.6094 28.8203 21.4766 29.0859 21.2109C29.3516 20.9453 29.4844 20.6094 29.4844 20.2031C29.4844 19.7969 29.3516 19.4609 29.0859 19.1953C28.8203 18.9297 28.4844 18.7969 28.0781 18.7969C27.6719 18.7969 27.3359 18.9297 27.0703 19.1953C26.8047 19.4609 26.6719 19.7969 26.6719 20.2031C26.6719 20.6094 26.8047 20.9453 27.0703 21.2109C27.3359 21.4766 27.6719 21.6094 28.0781 21.6094Z" fill="#242424"/>
</g>
</svg>
