<svg width="45" height="45" viewBox="0 0 45 45" fill="none" xmlns="http://www.w3.org/2000/svg">
<mask id="mask0_556_544" style="mask-type:alpha" maskUnits="userSpaceOnUse" x="0" y="0" width="45" height="45">
<rect width="45" height="45" fill="#242424"/>
</mask>
<g mask="url(#mask0_556_544)">
<path d="M14.2969 12L19.5469 5.20313C19.9219 4.70313 20.3672 4.33594 20.8828 4.10156C21.3984 3.86719 21.9375 3.75 22.5 3.75C23.0625 3.75 23.6016 3.86719 24.1172 4.10156C24.6328 4.33594 25.0781 4.70313 25.4531 5.20313L30.7031 12L38.6719 14.6719C39.4844 14.9219 40.125 15.3828 40.5937 16.0547C41.0625 16.7266 41.2969 17.4687 41.2969 18.2812C41.2969 18.6563 41.2422 19.0313 41.1328 19.4063C41.0234 19.7813 40.8437 20.1406 40.5937 20.4844L35.4375 27.7969L35.625 35.4844C35.6563 36.5781 35.2969 37.5 34.5469 38.25C33.7969 39 32.9219 39.375 31.9219 39.375C31.8594 39.375 31.5156 39.3281 30.8906 39.2344L22.5 36.8906L14.1094 39.2344C13.9531 39.2969 13.7813 39.3359 13.5938 39.3516C13.4062 39.3672 13.2344 39.375 13.0781 39.375C12.0781 39.375 11.2031 39 10.4531 38.25C9.70313 37.5 9.34375 36.5781 9.375 35.4844L9.5625 27.75L4.45312 20.4844C4.20312 20.1406 4.02344 19.7813 3.91406 19.4063C3.80469 19.0313 3.75 18.6563 3.75 18.2812C3.75 17.5 3.97656 16.7734 4.42969 16.1016C4.88281 15.4297 5.51562 14.9531 6.32812 14.6719L14.2969 12Z" fill="#242424"/>
</g>
</svg>
