<svg width="270" height="72" viewBox="0 0 270 72" fill="none" xmlns="http://www.w3.org/2000/svg">
<path d="M60.4136 41.4642V33.9024H63.745V32.4769C63.745 27.2774 65.1542 23.6221 67.9726 21.5076C70.5344 19.5832 74.4508 18.6227 79.7215 18.6227C80.2551 18.6227 80.8092 18.6329 81.3873 18.6533L80.8126 26.5646C77.0571 26.5646 74.6491 26.9685 73.5922 27.7729C72.5353 28.5773 72.0086 30.1453 72.0086 32.4735V33.9024H79.5642V41.4642H72.0086V63.5115H63.7484V41.4642H60.4136Z" fill="white"/>
<path d="M83.8188 27.1995V18.9997H92.079V27.1961H83.8188V27.1995ZM83.8188 63.5117V30.2473H92.079V63.5117H83.8188Z" fill="white"/>
<path d="M96.2725 63.5115V30.2472H104.533V33.4443C106.858 31.1432 110.156 29.9723 114.428 29.9315L113.884 38.5726C110.255 38.5726 107.789 39.1971 106.489 40.4495C105.186 41.7018 104.536 43.7484 104.536 46.5892V63.5115H96.2725Z" fill="white"/>
<path d="M114.17 47.0541C114.17 42.2889 115.874 38.2433 119.277 34.9172C122.68 31.5911 126.839 29.9281 131.748 29.9281C136.912 29.9281 141.13 31.642 144.396 35.0733C147.663 38.5046 149.294 42.6657 149.294 47.5598C149.294 48.0892 149.253 48.8291 149.168 49.7828H122.561C123.265 51.9448 124.455 53.6214 126.131 54.8195C127.807 56.0176 129.894 56.6149 132.391 56.6149C134.44 56.6149 136.153 56.2755 137.528 55.5967C138.906 54.9179 140.138 53.8488 141.226 52.3894L148.141 56.1703C144.557 61.5497 139.303 64.2412 132.387 64.2412C127.137 64.2412 122.786 62.6087 119.339 59.3471C115.891 56.0854 114.17 51.9889 114.17 47.0541ZM122.752 43.3377H140.586C138.92 39.4414 135.975 37.4932 131.748 37.4932C129.784 37.4932 127.992 38.0329 126.367 39.1122C124.746 40.1915 123.542 41.6 122.752 43.3377Z" fill="white"/>
<path d="M148.37 30.2471H156.63L162.68 51.7887L168.765 30.2471H177.217L183.268 51.7887L189.352 30.2471H197.295L187.8 63.5115H178.284L172.774 43.7178L167.264 63.5115H157.878L148.37 30.2471Z" fill="white"/>
<path d="M196.233 47.0541C196.233 42.2889 197.937 38.2433 201.34 34.9172C204.743 31.5911 208.902 29.9281 213.811 29.9281C218.975 29.9281 223.193 31.642 226.459 35.0733C229.726 38.5046 231.357 42.6657 231.357 47.5598C231.357 48.0892 231.316 48.8291 231.231 49.7828H204.624C205.328 51.9448 206.518 53.6214 208.194 54.8195C209.87 56.0176 211.957 56.6149 214.454 56.6149C216.502 56.6149 218.216 56.2755 219.591 55.5967C220.969 54.9179 222.201 53.8488 223.289 52.3894L230.204 56.1703C226.62 61.5497 221.366 64.2412 214.45 64.2412C209.2 64.2412 204.849 62.6087 201.402 59.3471C197.954 56.0854 196.233 51.9889 196.233 47.0541ZM204.815 43.3377H222.649C220.983 39.4414 218.038 37.4932 213.811 37.4932C211.847 37.4932 210.055 38.0329 208.43 39.1122C206.809 40.1915 205.605 41.6 204.815 43.3377Z" fill="white"/>
<path d="M234.528 63.5117V18.9997H242.723V32.915C245.562 30.9227 248.794 29.9283 252.423 29.9283C257.311 29.9283 261.463 31.5913 264.877 34.9174C268.29 38.2435 270 42.2891 270 47.0543C270 51.7787 268.283 55.8243 264.846 59.1911C261.408 62.558 257.27 64.2414 252.423 64.2414C248.839 64.2414 245.603 63.2571 242.723 61.2852V63.5083H234.528V63.5117ZM245.572 40.3512C243.674 42.2586 242.723 44.4918 242.723 47.0543C242.723 49.6167 243.674 51.85 245.572 53.7574C247.47 55.6648 249.755 56.6151 252.423 56.6151C255.091 56.6151 257.376 55.6614 259.274 53.7574C261.172 51.85 262.123 49.6167 262.123 47.0543C262.123 44.4918 261.172 42.2586 259.274 40.3512C257.376 38.4438 255.091 37.4934 252.423 37.4934C249.755 37.4934 247.474 38.4438 245.572 40.3512Z" fill="white"/>
<path d="M29.5349 12.2556L26.5078 23.8732L23.385 0L0 45.985L16.4212 59.8969L23.385 49.8948L30.4857 59.8969L46.6811 45.9476L29.5349 12.2556Z" fill="white"/>
<path d="M6.57861 63.8035H40.1016V72H6.57861V63.8035Z" fill="white"/>
</svg>
