<svg width="73" height="34" viewBox="0 0 73 34" fill="none" xmlns="http://www.w3.org/2000/svg">
<path d="M26.2627 0C32.1861 8.64958e-05 37.4315 2.89641 40.665 7.34863C42.9516 5.89848 45.6633 5.05863 48.5713 5.05859C55.2582 5.05859 60.9058 9.49912 62.7314 15.5918L59.6514 21.7061L55.1123 13.0146H47.6758L55.917 28.7344V33.8867H46.9111L39.4111 22.0371L47.501 13.0146H38.9053L32.1768 21.2559V13.0146H24.708V33.8867H20.3721C20.7706 33.5649 21.1318 33.2067 21.4551 32.8125C22.3348 31.718 22.7744 30.3232 22.7744 28.6279C22.7744 27.4475 22.5601 26.4493 22.1309 25.6338C21.7231 24.8183 21.1652 24.1528 20.457 23.6377C19.7703 23.1226 19.0079 22.7047 18.1709 22.3828C17.3554 22.0395 16.5293 21.7605 15.6924 21.5459C14.8555 21.3099 14.0831 21.0945 13.375 20.9014C12.6882 20.7082 12.1294 20.4831 11.7002 20.2256C11.2925 19.9466 11.0889 19.5923 11.0889 19.1631C11.0889 18.7983 11.2181 18.5408 11.4756 18.3906C11.733 18.2406 12.0652 18.1651 12.4727 18.165C13.138 18.165 13.9218 18.2942 14.8232 18.5518C15.7461 18.8093 16.6905 19.142 17.6562 19.5498C18.6219 19.9575 19.4804 20.3863 20.2314 20.8369L22.9355 15.1387C21.6694 14.3232 20.1562 13.6694 18.3965 13.1758C16.6581 12.6822 14.8985 12.4346 13.1172 12.4346C11.6534 12.4346 10.3281 12.6038 9.1416 12.9414C11.2527 5.47281 18.1183 0 26.2627 0ZM38.0381 33.8867H32.1768V30.1084L34.3037 27.7354L38.0381 33.8867ZM68.7842 18.1738C71.2262 19.6604 72.8573 22.3471 72.8574 25.415C72.8574 30.0938 69.0645 33.8866 64.3857 33.8867H63.3857V28.5596L68.7842 18.1738ZM3.57422 18.5039C3.49687 18.9397 3.459 19.3956 3.45898 19.8711C3.45898 21.03 3.66351 21.9959 4.07129 22.7686C4.50052 23.5412 5.05835 24.1851 5.74512 24.7002C6.45328 25.1937 7.21483 25.6019 8.03027 25.9238C8.86729 26.2243 9.70498 26.4817 10.542 26.6963C11.3788 26.8894 12.1405 27.0823 12.8271 27.2754C13.5354 27.4685 14.0932 27.7054 14.501 27.9844C14.9302 28.2419 15.1455 28.5854 15.1455 29.0146C15.1454 29.4436 14.9838 29.765 14.6621 29.9795C14.3403 30.1726 13.9006 30.2695 13.3428 30.2695C12.5916 30.2695 11.6893 30.109 10.6377 29.7871C9.5862 29.4652 8.53489 29.0355 7.4834 28.499C6.43183 27.9625 5.51967 27.3616 4.74707 26.6963L2.44922 31.3711C0.935617 29.8407 0 27.7376 0 25.415C9.52454e-05 22.5615 1.41202 20.0389 3.57422 18.5039Z" fill="white"/>
</svg>
